<?xml version="1.0" encoding="utf-8"?>
<svg id="svg2" viewBox="0 0 500 500" xmlns="http://www.w3.org/2000/svg" xmlns:bx="https://boxy-svg.com" width="500px" height="500px"><desc>Source: openclipart.org/detail/209545</desc><defs><bx:export><bx:file format="png" path="icon.png"/><bx:file format="svg" path="icon.svg"/></bx:export></defs><g style="transform-origin: 262.5px 250px;" transform="matrix(0, 1, -1, 0, -12.5, 12.5)"><path style="" d="M 125 0 L 500 0 L 500 375 C 500 444.036 440.038 500 366.072 500 L 125 500 L 125 0 Z M 181.25 60 L 181.25 190 C 181.25 195.523 186.047 200 191.965 200 L 433.035 200 C 438.953 200 443.75 195.523 443.75 190 L 443.75 60 C 443.75 54.477 438.953 50 433.035 50 L 191.965 50 C 186.047 50 181.25 54.477 181.25 60 Z M 253.572 305 L 253.572 275 L 221.428 275 L 221.428 305 L 189.285 305 L 189.285 335 L 221.428 335 L 221.428 365 L 253.572 365 L 253.572 335 L 285.715 335 L 285.715 305 L 253.572 305 Z M 371.428 325 C 359.593 325 350 333.954 350 345 C 350 356.046 359.593 365 371.428 365 C 383.263 365 392.857 356.046 392.857 345 C 392.857 333.954 383.263 325 371.428 325 Z M 414.285 275 C 402.45 275 392.857 283.954 392.857 295 C 392.857 306.046 402.45 315 414.285 315 C 426.12 315 435.715 306.046 435.715 295 C 435.715 283.954 426.12 275 414.285 275 Z"/><path style="fill: none; stroke-width: 50px; stroke: rgb(0, 0, 0);" d="M 65 90 H 150 V 410 H 65 A 40 40 0 0 1 25 370 V 130 A 40 40 0 0 1 65 90 Z" bx:shape="rect 25 90 125 320 40 0 0 40 1@dffa75fe"/></g></svg>